<svg xmlns="http://www.w3.org/2000/svg" xmlns:xlink="http://www.w3.org/1999/xlink" viewBox="0 0 841.89 595.28"><defs><style>.cls-1{font-size:25.53px;fill:#565557;font-family:OpenSans-Light, Open Sans;font-weight:300;}.cls-2{fill:url(#linear-gradient);}.cls-3{fill:url(#linear-gradient-2);}.cls-4{fill:url(#linear-gradient-3);}.cls-5{fill:url(#linear-gradient-4);}.cls-6{fill:url(#linear-gradient-5);}.cls-7{fill:url(#linear-gradient-6);}.cls-8{fill:url(#linear-gradient-7);}.cls-9{fill:url(#linear-gradient-8);}.cls-10{fill:url(#linear-gradient-9);}.cls-11{fill:url(#linear-gradient-10);}.cls-12{fill:url(#linear-gradient-11);}.cls-13{fill:url(#linear-gradient-12);}</style><linearGradient id="linear-gradient" x1="175.02" y1="309.42" x2="178.21" y2="259.7" gradientUnits="userSpaceOnUse"><stop offset="0" stop-color="#0b716b"/><stop offset="1" stop-color="#059e97"/></linearGradient><linearGradient id="linear-gradient-2" x1="163.21" y1="308.66" x2="166.4" y2="258.94" xlink:href="#linear-gradient"/><linearGradient id="linear-gradient-3" x1="213.41" y1="349.19" x2="161.86" y2="311.32" gradientUnits="userSpaceOnUse"><stop offset="0" stop-color="#a3195c"/><stop offset="1" stop-color="#d40d55"/></linearGradient><linearGradient id="linear-gradient-4" x1="205.35" y1="360.16" x2="153.8" y2="322.29" xlink:href="#linear-gradient-3"/><linearGradient id="linear-gradient-5" x1="214.35" y1="362.37" x2="265.91" y2="336.37" gradientUnits="userSpaceOnUse"><stop offset="0" stop-color="#942180"/><stop offset="1" stop-color="#652780"/></linearGradient><linearGradient id="linear-gradient-6" x1="219.55" y1="372.67" x2="271.1" y2="346.67" xlink:href="#linear-gradient-5"/><linearGradient id="linear-gradient-7" x1="283.68" y1="284.24" x2="274.55" y2="353.13" gradientUnits="userSpaceOnUse"><stop offset="0" stop-color="#e6521f"/><stop offset="1" stop-color="#f7b135"/></linearGradient><linearGradient id="linear-gradient-8" x1="297.98" y1="286.14" x2="288.86" y2="355.03" xlink:href="#linear-gradient-7"/><linearGradient id="linear-gradient-9" x1="300.77" y1="281.06" x2="224.58" y2="227.23" gradientUnits="userSpaceOnUse"><stop offset="0" stop-color="#95be1f"/><stop offset="1" stop-color="#0a8d39"/></linearGradient><linearGradient id="linear-gradient-10" x1="308.21" y1="270.52" x2="232.03" y2="216.69" xlink:href="#linear-gradient-9"/><linearGradient id="linear-gradient-11" x1="196.67" y1="258.27" x2="255.52" y2="218.58" gradientUnits="userSpaceOnUse"><stop offset="0" stop-color="#2174b8"/><stop offset="1" stop-color="#3ba6de"/></linearGradient><linearGradient id="linear-gradient-12" x1="190.37" y1="248.93" x2="249.22" y2="209.25" xlink:href="#linear-gradient-11"/></defs><g id="Layer_2" data-name="Layer 2"><text class="cls-1" transform="translate(330.63 365.72)">Youth Empowerment Society</text><path class="cls-2" d="M177.3,251c2.48,5.25,2.71,9,.84,13.32-2.41,5.55-7.51,9.09-12.58,8.14-3.05-.58-4.3,7-4.49,11.52-.71,16.82,30.74,37.35,29.09,30.95-9.53-37.09-2.41-64.42,4.1-78.7C196.63,231.06,174.42,244.9,177.3,251Z"/><path class="cls-3" d="M169.07,253.05a6.74,6.74,0,1,0,3.49,8.87A6.73,6.73,0,0,0,169.07,253.05Z"/><path class="cls-4" d="M164.9,318.09c5.79.48,9.17,2.16,12,5.94,3.6,4.86,4.11,11.05.75,15-2,2.35,3.91,7.22,7.73,9.65,14.22,9,47.72-7.94,41.36-9.72-36.9-10.29-57-30.12-66.11-42.9C157.28,291.38,158.16,317.53,164.9,318.09Z"/><path class="cls-5" d="M162.54,326.24a6.74,6.74,0,1,0,9.43,1.41A6.74,6.74,0,0,0,162.54,326.24Z"/><path class="cls-6" d="M216.78,362.37c3.31-4.78,6.46-6.86,11.12-7.39,6-.68,11.63,2,13.34,6.83,1,2.92,8.21.22,12.22-1.87,14.92-7.8,17-45.3,12.26-40.67-27.36,26.8-54.58,34.3-70.2,35.8C189.84,355.61,212.93,367.93,216.78,362.37Z"/><path class="cls-7" d="M222.66,368.49a6.74,6.74,0,1,0,5.93-7.47A6.74,6.74,0,0,0,222.66,368.49Z"/><path class="cls-8" d="M281.07,339.58c-2.48-5.26-2.71-9-.84-13.33,2.42-5.55,7.51-9.08,12.58-8.13,3.05.57,4.3-7,4.49-11.52.71-16.82-30.73-37.36-29.09-31,9.53,37.1,2.41,64.43-4.1,78.7C261.75,359.53,284,345.7,281.07,339.58Z"/><path class="cls-9" d="M289.3,337.55a6.74,6.74,0,1,0-3.49-8.87A6.75,6.75,0,0,0,289.3,337.55Z"/><path class="cls-10" d="M293.48,272.5c-5.8-.48-9.17-2.16-12-5.93-3.6-4.87-4.12-11-.76-15,2-2.35-3.91-7.22-7.73-9.64-14.21-9-47.72,7.94-41.35,9.71,36.89,10.3,57,30.12,66.1,42.9C301.1,299.22,300.22,273.06,293.48,272.5Z"/><path class="cls-11" d="M295.83,264.36a6.74,6.74,0,1,0-9.42-1.41A6.73,6.73,0,0,0,295.83,264.36Z"/><path class="cls-12" d="M241.59,228.23c-3.31,4.77-6.46,6.85-11.12,7.38-6,.69-11.62-2-13.33-6.83-1-2.92-8.22-.22-12.22,1.88-14.93,7.8-17,45.29-12.27,40.67,27.36-26.8,54.59-34.3,70.21-35.8C268.54,235,245.45,222.67,241.59,228.23Z"/><path class="cls-13" d="M235.72,222.11a6.74,6.74,0,1,0-5.94,7.46A6.75,6.75,0,0,0,235.72,222.11Z"/><path d="M366.89,326.51V286.14a5.17,5.17,0,0,0-.62-2.45L327.9,219.07h9.67c10.74,18.27,29.47,50,34.07,58,4.61-8,23.48-39.45,35-58h9.2l-40,65.23a4.68,4.68,0,0,0-.46,2.3v39.91Z"/><path d="M527.69,273.71H472.9v45.12h60l-1.23,7.68H464.61V219.07h65.84v7.68H472.9V266h54.79Z"/><path d="M596.72,297.65c3.22,14.28,12.74,22.72,30.38,22.72,19.65,0,27.17-9.82,27.17-21.49,0-12.12-5.37-19.64-29-25.48-22.71-5.67-32.53-13-32.53-28.54,0-14.12,10.28-27.32,33.3-27.32,23.64,0,33.61,14.43,35,27.47h-8.59c-2.46-11.51-10-19.8-26.86-19.8-15.5,0-23.94,7.22-23.94,19.19s7.06,16.42,26.86,21.33c30.23,7.52,34.68,19.65,34.68,32.54,0,15.81-11.51,29.47-36.37,29.47-26.86,0-36.68-15.66-38.68-30.09Z"/></g></svg>