<svg xmlns="http://www.w3.org/2000/svg" viewBox="0 0 124.51 100"><defs><style>.cls-1{fill:#fcfcfc;}.cls-2{fill:#f8ba39;}</style></defs><g id="Layer_8" data-name="Layer 8"><g id="Layer_1" data-name="Layer 1"><path class="cls-1" d="M63,27.22c-.47-.53-1.22-.67-2.38-.39a11.11,11.11,0,0,0-3.11,1.26A12,12,0,0,0,51.09,39c-.08,7.3,0,14.6,0,21.9a14,14,0,0,0,.52,3.61,13,13,0,0,0,12.63,9.21c7.35-.2,14.7,0,22.06,0a1.93,1.93,0,0,1,1.79.61c2.86,3.5,5.74,7,8.71,10.39,1,1.12,2.21,2.08,3.93,1.5a3.75,3.75,0,0,0,2.57-3.82c0-2.28.1-4.56,0-6.83-.08-1.53.44-2,1.92-1.87A14.24,14.24,0,0,0,113,72.45a12.87,12.87,0,0,0,7.39-12.11c0-6.78,0-13.57,0-20.35a13.18,13.18,0,0,0-5.06-10.94,9.5,9.5,0,0,0-6.22-2.38c-7.2.13-14.4,0-21.6,0H79.14c-.61,0-1.21-.11-1.35.84-.52,3.64.12,4.43,3.77,4.44H108a6.45,6.45,0,0,1,2,.2c3.51,1.09,4.93,3.62,5.07,7.52.24,6.57.09,13.15,0,19.73a9.52,9.52,0,0,1-.49,3.79c-1.31,2.93-2.8,4.9-7.11,4.82-2.58,0-5.18,0-7.77,0C98.5,68,98,68.48,98,69.79c.08,2.51,0,5,0,8-2.53-3-4.88-5.62-7.06-8.38A3.06,3.06,0,0,0,88.23,68q-12.58.06-25.17,0c-3.32,0-6.67-3.2-6.69-6.45,0-7.51-.07-15,0-22.53a6.74,6.74,0,0,1,4.84-6.8A3.19,3.19,0,0,0,63,31.43Z"/><path class="cls-2" d="M60.9,56a1.21,1.21,0,0,1,1-.92c4.33-1.08,6-3.23,6-7.64,0-6.94,0-13.88,0-20.81,0-3.74-1.93-6.41-5.15-7.41a6.41,6.41,0,0,0-2-.19C46,19,31.29,19.06,16.59,19a7.21,7.21,0,0,0-7.45,7.37c-.11,7-.27,14.09,0,21.12.25,5.51,3,7.69,8.68,7.9,2.22.08,4.46.08,6.68,0,1.26,0,1.74.3,1.68,1.63-.1,2.36,0,4.73,0,7.09l.44.15c2.19-2.57,4.44-5.11,6.57-7.74a2.62,2.62,0,0,1,2.22-1.11c3.32,0,6.63,0,10,0,1,0,1.12.12,1.13,1.09v3.18a1,1,0,0,1-.51.79c-.89.65-2.59.2-3.93.24h-.47c-5.41,0-5.35,0-8.58,4.31-1.82,2.41-3.92,4.62-5.82,7-1.25,1.55-2.86,1.35-4.38.92s-1.83-2-1.89-3.41c-.08-1.76,0-3.52,0-5.28,0-3.53,0-3.56-3.46-3.52a17.69,17.69,0,0,1-4.74-.58c-3.59-1-8.69-5.8-8.62-11,.12-8,0-16,0-24.08,0-4,2.09-6.85,5.1-9.22a11,11,0,0,1,7.23-2.12c15,.05,30,0,45.05,0,4.45,0,7.58,2.29,9.86,5.86a11.87,11.87,0,0,1,1.8,6.78q-.17,10.49,0,21c.07,5.86-2.52,9.9-7.79,12.38a18.07,18.07,0,0,1-3.4.87.44.44,0,0,1-.51-.32C61.38,59.87,60.9,56,60.9,56Z"/><path class="cls-2" d="M23.62,40.49a3.55,3.55,0,0,0,.72,2.31,4.26,4.26,0,0,0,2.25,1.31,16.05,16.05,0,0,0,4,.41c1.4,0,3-.06,4.86-.18a34.57,34.57,0,0,0,4.93-.65l.14-.92q-2.3.15-3.78.15A4.63,4.63,0,0,1,33.2,41.7,5.29,5.29,0,0,1,32.07,38a13.39,13.39,0,0,1,.44-3.56,5.56,5.56,0,0,1,1.4-2.51A3.36,3.36,0,0,1,36.33,31a5.71,5.71,0,0,1,4.94,2.36c1.14,1.58,1.7,3.87,1.7,6.87a9,9,0,0,1-.61,3.63,4.59,4.59,0,0,1-2,2.15,11.32,11.32,0,0,1-3.79,1.17c-1.11.17-2.27.31-3.49.41s-2.32.15-3.31.15a14.39,14.39,0,0,1-5-.72A5.58,5.58,0,0,1,22,44.77,7.15,7.15,0,0,1,21,40.92q0-1.52.12-3.42h2.59C23.65,38.39,23.62,39.39,23.62,40.49ZM36.76,24.06l2.52,2.54-2.52,2.52L34.23,26.6Zm3.74,15.8a7,7,0,0,0-1.2-4.34,4.37,4.37,0,0,0-3.61-1.39h-.81a16,16,0,0,0-.48,3.23A2.54,2.54,0,0,0,35,39.25a3,3,0,0,0,2.13.61Z"/><path class="cls-1" d="M85.73,62V38h13V41.9H90.33v5.88h8v3.76h-8V58h8.42v4Z"/></g></g></svg>