<svg xmlns="http://www.w3.org/2000/svg" viewBox="0 0 841.89 595.28"><defs><style>.cls-1{fill:#f15a24;}.cls-2{fill:#fbb03b;}.cls-3{fill:#5e6c70;}.cls-4{fill:#9eb9bd;}.cls-5{fill:#5eb251;}.cls-6{fill:#a6c64b;}.cls-7{fill:#0087cb;}.cls-8{fill:#28b3e1;}.cls-9{font-size:25.53px;fill:#565557;font-family:OpenSans-Light, Open Sans;font-weight:300;}</style></defs><g id="Layer_2" data-name="Layer 2"><path class="cls-1" d="M609.39,324.41l-26.23-15.15-16.94-9.78L540,284.34c-4.65-2.69-4.65-7.09,0-9.78l13.72-7.91L609.39,299c4.65,2.69,8.46,9.29,8.46,14.67v5.85C617.85,324.89,614,327.09,609.39,324.41Z"/><path class="cls-2" d="M609.39,234.56,583.16,249.7l-16.94,9.78L540,274.63c-4.65,2.68-4.65,7.08,0,9.77l13.72,7.92L609.39,260c4.65-2.69,8.46-9.28,8.46-14.66v-5.85C617.85,234.07,614,231.87,609.39,234.56Z"/><path class="cls-3" d="M604.38,225.88,578.14,241l-16.93,9.78L535,266c-4.66,2.68-8.46.48-8.47-4.89V245.22l55.86-32c4.66-2.69,12.28-2.69,16.94,0l5.06,2.92C609,218.79,609,223.19,604.38,225.88Z"/><path class="cls-4" d="M526.56,181v80.13c0,5.37,3.81,7.57,8.46,4.88l13.72-7.91-.18-64.4c0-5.38-3.81-12-8.47-14.67L535,176.07C530.38,173.38,526.57,175.58,526.56,181Z"/><path class="cls-5" d="M438.74,225.88,465,241l16.94,9.77L508.13,266c4.66,2.68,8.47.48,8.47-4.89V245.22l-55.86-32c-4.66-2.69-12.28-2.69-16.94,0l-5.06,2.92C434.08,218.8,434.08,223.19,438.74,225.88Z"/><path class="cls-6" d="M516.55,181v30.29c0,5.37,0,14.17,0,19.55v30.29c0,5.37-3.8,7.57-8.46,4.89l-13.72-7.92.19-64.4c0-5.38,3.8-12,8.46-14.67l5.07-2.92C512.74,173.38,516.54,175.58,516.55,181Z"/><path class="cls-7" d="M604.37,333.08l-26.23-15.14-16.93-9.77L535,293c-4.66-2.69-8.46-.49-8.47,4.89v15.84l55.86,32c4.66,2.69,12.28,2.69,16.94,0l5.06-2.93C609,340.17,609,335.77,604.37,333.08Z"/><path class="cls-8" d="M526.57,378V297.88c0-5.38,3.81-7.58,8.46-4.89l13.72,7.92-.18,64.4c0,5.37-3.81,12-8.47,14.66L535,382.9C530.38,385.58,526.57,383.39,526.57,378Z"/></g><g id="Layer_3" data-name="Layer 3"><text class="cls-9" transform="translate(185.6 374.09)">Youth Empowerment Society</text><path class="cls-8" d="M231,282.3l25.9-49.93h19.46l-36.46,67v42.44h-18V300L185.6,232.37h19.47Z"/><path class="cls-8" d="M352.68,341.81h-61.9V232.37h61.9v15.12h-44v29.79h41.24v15H308.67v34.36h44Z"/><path class="cls-8" d="M439.44,312.09q0,14.6-10.56,22.91t-29.11,8.31q-18.57,0-30.4-5.77V320.62a81.93,81.93,0,0,0,15.91,5.54,67.26,67.26,0,0,0,15.68,2q10.64,0,15.69-4a13.19,13.19,0,0,0,5.05-10.85,13.64,13.64,0,0,0-4.64-10.41q-4.65-4.26-19.17-10.1-15-6.06-21.1-13.85a29.26,29.26,0,0,1-6.14-18.71q0-13.71,9.73-21.56t26.12-7.86a76.77,76.77,0,0,1,31.29,6.88l-5.69,14.6q-14.6-6.14-26.05-6.14c-5.79,0-10.18,1.27-13.17,3.78a12.43,12.43,0,0,0-4.49,10,14.16,14.16,0,0,0,1.79,7.3,18.38,18.38,0,0,0,5.92,5.72q4.11,2.7,14.82,7.11,12,5,17.67,9.36a27.57,27.57,0,0,1,8.23,9.81A29.56,29.56,0,0,1,439.44,312.09Z"/></g></svg>