<svg xmlns="http://www.w3.org/2000/svg" viewBox="0 0 841.89 595.28"><defs><style>.cls-1{fill:#565557;}.cls-2{fill:#f15a24;}.cls-3{fill:#fbb03b;}.cls-4{fill:#fff;}.cls-5{fill:#5eb251;}.cls-6{fill:#a6c64b;}.cls-7{fill:#28b3e1;}.cls-8{fill:#0087cb;}</style></defs><g id="Layer_3" data-name="Layer 3"><path class="cls-1" d="M243.9,392.48l4.46-8.58h3.34l-6.27,11.52v7.29h-3.08v-7.19L236.1,383.9h3.35Z"/><path class="cls-1" d="M266.49,395.57A7.76,7.76,0,0,1,264.7,401a6.38,6.38,0,0,1-5,2,6.87,6.87,0,0,1-3.53-.9,5.92,5.92,0,0,1-2.35-2.59,8.76,8.76,0,0,1-.82-3.91,7.71,7.71,0,0,1,1.77-5.4,6.44,6.44,0,0,1,5-1.95,6.25,6.25,0,0,1,4.89,2A7.69,7.69,0,0,1,266.49,395.57Zm-10.36,0q0,4.94,3.64,4.93c2.4,0,3.61-1.64,3.61-4.93s-1.21-4.88-3.63-4.88A3.09,3.09,0,0,0,257,392,6.37,6.37,0,0,0,256.13,395.57Z"/><path class="cls-1" d="M280,402.71l-.42-1.86h-.16a4.28,4.28,0,0,1-1.79,1.56A6.11,6.11,0,0,1,275,403a5.22,5.22,0,0,1-3.86-1.29,5.31,5.31,0,0,1-1.27-3.9v-9.3h3.05v8.78a3.79,3.79,0,0,0,.67,2.45,2.55,2.55,0,0,0,2.09.82,3.33,3.33,0,0,0,2.8-1.14,6.25,6.25,0,0,0,.9-3.82v-7.09h3v14.23Z"/><path class="cls-1" d="M292,400.53a7.39,7.39,0,0,0,2.21-.35v2.28a6.43,6.43,0,0,1-1.29.36,8.85,8.85,0,0,1-1.64.15q-4.3,0-4.3-4.53v-7.67H285v-1.34l2.08-1.1,1-3H290v3.17h4.05v2.29H290v7.62a2.13,2.13,0,0,0,.54,1.61A2,2,0,0,0,292,400.53Z"/><path class="cls-1" d="M309.58,402.71h-3V394a3.84,3.84,0,0,0-.66-2.46,2.56,2.56,0,0,0-2.11-.81,3.31,3.31,0,0,0-2.79,1.14,6.25,6.25,0,0,0-.9,3.82v7.06h-3v-20h3v5.08a24.21,24.21,0,0,1-.15,2.61h.19a4.2,4.2,0,0,1,1.72-1.59,5.5,5.5,0,0,1,2.57-.57c3.44,0,5.17,1.74,5.17,5.21Z"/><path class="cls-1" d="M331.6,402.71H321V383.9H331.6v2.6H324v5.12h7.09v2.57H324v5.91h7.57Z"/><path class="cls-1" d="M347.34,402.71h-3v-8.77a3.92,3.92,0,0,0-.62-2.44,2.26,2.26,0,0,0-1.93-.81,2.93,2.93,0,0,0-2.56,1.14,6.65,6.65,0,0,0-.82,3.79v7.09h-3V388.48h2.37l.43,1.87h.15a3.92,3.92,0,0,1,1.72-1.57,5.54,5.54,0,0,1,2.48-.56q3.28,0,4.35,2.24h.2a4.44,4.44,0,0,1,1.78-1.65,5.69,5.69,0,0,1,2.63-.59,4.79,4.79,0,0,1,3.71,1.29,5.74,5.74,0,0,1,1.16,3.92v9.28h-3v-8.77a3.91,3.91,0,0,0-.63-2.44,2.28,2.28,0,0,0-1.93-.81,3,3,0,0,0-2.58,1.1,5.65,5.65,0,0,0-.82,3.38Z"/><path class="cls-1" d="M367.76,403a5,5,0,0,1-4.19-1.94h-.18q.18,1.8.18,2.19v5.83h-3V388.48H363c.07.27.21.9.42,1.9h.16a4.74,4.74,0,0,1,4.25-2.16,5,5,0,0,1,4.15,1.93,10.61,10.61,0,0,1,0,10.86A5,5,0,0,1,367.76,403ZM367,390.69a3.12,3.12,0,0,0-2.63,1.06,5.49,5.49,0,0,0-.83,3.37v.45a6.69,6.69,0,0,0,.82,3.77,3.08,3.08,0,0,0,2.69,1.16,2.72,2.72,0,0,0,2.42-1.29,6.6,6.6,0,0,0,.85-3.67,6.44,6.44,0,0,0-.84-3.62A2.81,2.81,0,0,0,367,390.69Z"/><path class="cls-1" d="M389.59,395.57A7.71,7.71,0,0,1,387.8,401a6.38,6.38,0,0,1-5,2,6.8,6.8,0,0,1-3.52-.9,5.88,5.88,0,0,1-2.36-2.59,8.76,8.76,0,0,1-.82-3.91,7.71,7.71,0,0,1,1.77-5.4,6.45,6.45,0,0,1,5-1.95,6.25,6.25,0,0,1,4.89,2A7.69,7.69,0,0,1,389.59,395.57Zm-10.36,0c0,3.29,1.22,4.93,3.64,4.93s3.61-1.64,3.61-4.93-1.21-4.88-3.63-4.88a3.09,3.09,0,0,0-2.76,1.26A6.46,6.46,0,0,0,379.23,395.57Z"/><path class="cls-1" d="M404.74,402.71l-1.84-6.64c-.22-.7-.63-2.33-1.21-4.9h-.12c-.49,2.32-.89,4-1.18,4.93l-1.89,6.61h-3.35l-4-14.23h3.09l1.82,7c.41,1.74.7,3.22.87,4.46H397q.12-.94.39-2.16c.18-.81.33-1.42.46-1.82l2.16-7.49h3.32l2.1,7.49c.13.42.29,1.06.48,1.93a14.71,14.71,0,0,1,.34,2h.1a38.83,38.83,0,0,1,.91-4.43l1.84-7h3l-4,14.23Z"/><path class="cls-1" d="M420.81,403a6.86,6.86,0,0,1-5.19-1.94,7.34,7.34,0,0,1-1.87-5.33,8,8,0,0,1,1.74-5.48,6,6,0,0,1,4.77-2,5.86,5.86,0,0,1,4.45,1.71,6.57,6.57,0,0,1,1.64,4.71v1.64h-9.49a4.71,4.71,0,0,0,1.12,3.18,3.9,3.9,0,0,0,3,1.12,10.78,10.78,0,0,0,2.34-.24,12.18,12.18,0,0,0,2.34-.79V402a9.06,9.06,0,0,1-2.24.74A13.38,13.38,0,0,1,420.81,403Zm-.55-12.46a3,3,0,0,0-2.31.92,4.32,4.32,0,0,0-1,2.66h6.46a4,4,0,0,0-.85-2.67A2.94,2.94,0,0,0,420.26,390.51Z"/><path class="cls-1" d="M437,388.22a7.66,7.66,0,0,1,1.5.13l-.29,2.82a5.92,5.92,0,0,0-1.34-.16,3.87,3.87,0,0,0-2.94,1.19,4.24,4.24,0,0,0-1.13,3.08v7.43h-3V388.48h2.37l.4,2.51h.16a5.61,5.61,0,0,1,1.84-2A4.39,4.39,0,0,1,437,388.22Z"/><path class="cls-1" d="M453.14,402.71h-3v-8.77a4,4,0,0,0-.62-2.44,2.28,2.28,0,0,0-1.93-.81,3,3,0,0,0-2.57,1.14,6.74,6.74,0,0,0-.82,3.79v7.09h-3V388.48h2.37l.42,1.87h.16a3.84,3.84,0,0,1,1.71-1.57,5.57,5.57,0,0,1,2.48-.56q3.29,0,4.35,2.24h.21a4.41,4.41,0,0,1,1.77-1.65,5.72,5.72,0,0,1,2.63-.59,4.76,4.76,0,0,1,3.71,1.29,5.69,5.69,0,0,1,1.17,3.92v9.28h-3v-8.77a4,4,0,0,0-.62-2.44,2.3,2.3,0,0,0-1.94-.81,3,3,0,0,0-2.58,1.1,5.72,5.72,0,0,0-.82,3.38Z"/><path class="cls-1" d="M472.57,403a6.86,6.86,0,0,1-5.2-1.94,7.34,7.34,0,0,1-1.87-5.33,8,8,0,0,1,1.74-5.48,6,6,0,0,1,4.77-2,5.85,5.85,0,0,1,4.45,1.71,6.57,6.57,0,0,1,1.64,4.71v1.64h-9.49a4.71,4.71,0,0,0,1.12,3.18,3.9,3.9,0,0,0,3,1.12,10.94,10.94,0,0,0,2.35-.24,12.33,12.33,0,0,0,2.33-.79V402a9.06,9.06,0,0,1-2.24.74A13.35,13.35,0,0,1,472.57,403ZM472,390.51a3,3,0,0,0-2.31.92,4.32,4.32,0,0,0-1,2.66h6.46a4,4,0,0,0-.85-2.67A2.94,2.94,0,0,0,472,390.51Z"/><path class="cls-1" d="M494.06,402.71h-3V394a3.84,3.84,0,0,0-.66-2.46,2.57,2.57,0,0,0-2.11-.81,3.32,3.32,0,0,0-2.8,1.14,6.24,6.24,0,0,0-.89,3.79v7.09h-3V388.48h2.36l.43,1.87h.15a4.15,4.15,0,0,1,1.83-1.57,6.11,6.11,0,0,1,2.63-.56q5.12,0,5.12,5.21Z"/><path class="cls-1" d="M503.57,400.53a7.39,7.39,0,0,0,2.21-.35v2.28a6.43,6.43,0,0,1-1.29.36,8.85,8.85,0,0,1-1.64.15q-4.31,0-4.3-4.53v-7.67h-1.94v-1.34l2.08-1.1,1-3h1.87v3.17h4.05v2.29h-4.05v7.62a2.13,2.13,0,0,0,.54,1.61A2,2,0,0,0,503.57,400.53Z"/><path class="cls-1" d="M526.64,397.6a4.72,4.72,0,0,1-1.81,3.94,7.92,7.92,0,0,1-5,1.43,11.94,11.94,0,0,1-5.22-1v-2.91a14.43,14.43,0,0,0,2.73.95,11.25,11.25,0,0,0,2.7.35,4.32,4.32,0,0,0,2.7-.69,2.3,2.3,0,0,0,.86-1.87,2.35,2.35,0,0,0-.79-1.79,12.09,12.09,0,0,0-3.3-1.74,8.68,8.68,0,0,1-3.63-2.38,5,5,0,0,1-1-3.21,4.52,4.52,0,0,1,1.67-3.71,7,7,0,0,1,4.49-1.35,13.17,13.17,0,0,1,5.38,1.18l-1,2.51a11.76,11.76,0,0,0-4.47-1.05,3.4,3.4,0,0,0-2.27.65,2.13,2.13,0,0,0-.77,1.71,2.4,2.4,0,0,0,.31,1.26,3.06,3.06,0,0,0,1,1,17.62,17.62,0,0,0,2.55,1.23,14.34,14.34,0,0,1,3,1.6,4.75,4.75,0,0,1,1.41,1.69A4.93,4.93,0,0,1,526.64,397.6Z"/><path class="cls-1" d="M542.59,395.57A7.76,7.76,0,0,1,540.8,401a6.38,6.38,0,0,1-5,2,6.87,6.87,0,0,1-3.53-.9,5.92,5.92,0,0,1-2.35-2.59,8.76,8.76,0,0,1-.82-3.91,7.71,7.71,0,0,1,1.77-5.4,6.44,6.44,0,0,1,5-1.95,6.25,6.25,0,0,1,4.89,2A7.69,7.69,0,0,1,542.59,395.57Zm-10.36,0q0,4.94,3.64,4.93c2.4,0,3.61-1.64,3.61-4.93s-1.21-4.88-3.63-4.88a3.09,3.09,0,0,0-2.76,1.26A6.46,6.46,0,0,0,532.23,395.57Z"/><path class="cls-1" d="M551.81,403a6.24,6.24,0,0,1-4.91-1.88,9.58,9.58,0,0,1,.07-10.94,6.55,6.55,0,0,1,5.08-1.93,9.46,9.46,0,0,1,4.05.84l-.91,2.43a9.11,9.11,0,0,0-3.17-.75q-3.69,0-3.69,4.91a5.88,5.88,0,0,0,.92,3.59,3.17,3.17,0,0,0,2.7,1.21,7.84,7.84,0,0,0,3.82-1v2.63a6,6,0,0,1-1.73.69A10.9,10.9,0,0,1,551.81,403Z"/><path class="cls-1" d="M558.94,384.71a1.66,1.66,0,0,1,.44-1.25,1.75,1.75,0,0,1,1.27-.44,1.53,1.53,0,0,1,1.68,1.69,1.65,1.65,0,0,1-.44,1.21,1.67,1.67,0,0,1-1.24.45,1.71,1.71,0,0,1-1.27-.45A1.61,1.61,0,0,1,558.94,384.71Zm3.2,18h-3V388.48h3Z"/><path class="cls-1" d="M572.68,403a6.86,6.86,0,0,1-5.19-1.94,7.34,7.34,0,0,1-1.87-5.33,8,8,0,0,1,1.73-5.48,6,6,0,0,1,4.78-2,5.86,5.86,0,0,1,4.45,1.71,6.57,6.57,0,0,1,1.64,4.71v1.64h-9.49a4.66,4.66,0,0,0,1.12,3.18,3.86,3.86,0,0,0,3,1.12,10.87,10.87,0,0,0,2.35-.24,12.18,12.18,0,0,0,2.34-.79V402a9.19,9.19,0,0,1-2.24.74A13.46,13.46,0,0,1,572.68,403Zm-.55-12.46a3,3,0,0,0-2.31.92,4.32,4.32,0,0,0-1,2.66h6.46a4,4,0,0,0-.85-2.67A2.92,2.92,0,0,0,572.13,390.51Z"/><path class="cls-1" d="M587,400.53a7.45,7.45,0,0,0,2.22-.35v2.28a6.75,6.75,0,0,1-1.3.36,8.7,8.7,0,0,1-1.64.15c-2.86,0-4.3-1.51-4.3-4.53v-7.67H580v-1.34l2.09-1.1,1-3H585v3.17H589v2.29H585v7.62a2.09,2.09,0,0,0,.55,1.61A2,2,0,0,0,587,400.53Z"/><path class="cls-1" d="M589.85,388.48h3.29l2.9,8.07a15.46,15.46,0,0,1,.88,3.24h.1a15.51,15.51,0,0,1,.42-1.72q.31-1,3.27-9.59H604l-6.09,16.13c-1.1,3-2.95,4.44-5.53,4.44a9.13,9.13,0,0,1-2-.22v-2.4a6.74,6.74,0,0,0,1.56.16c1.46,0,2.48-.85,3.08-2.54l.52-1.34Z"/><path class="cls-2" d="M604.34,356.06H489.79v-54A114.56,114.56,0,0,1,604.34,187.55h0Z"/><path class="cls-3" d="M604.34,356.06l-57.11.4-57.44.31h-.7v-.71L489,326.83l0-14.62c0-4.88-.08-9.73.1-14.65,0-1.23.11-2.46.2-3.68l.28-3.67.46-3.66c.14-1.22.3-2.43.54-3.64l.64-3.63c.23-1.2.54-2.39.8-3.59.5-2.41,1.23-4.76,1.88-7.12.32-1.19.77-2.34,1.14-3.51s.75-2.34,1.22-3.47c.9-2.29,1.75-4.59,2.81-6.81a114.57,114.57,0,0,1,48.91-53.45c1.05-.63,2.15-1.2,3.24-1.75l3.29-1.66,3.36-1.52,1.68-.75,1.72-.67,3.43-1.35,3.49-1.18,1.74-.58,1.78-.51,3.54-1a119.51,119.51,0,0,1,29.16-3.68h.87v.88l-.13,42.27L604.87,272Zm0,0-.54-84.47-.21-42-.13-42,.88.88a117.71,117.71,0,0,0-28.7,3.7l-3.48,1-1.74.5-1.72.58-3.43,1.17-3.37,1.33-1.69.67-1.65.75-3.3,1.49L552,201.27c-1.08.55-2.15,1.1-3.19,1.72l-3.13,1.82c-1,.62-2,1.3-3.06,1.94-2.06,1.26-4,2.74-6,4.13a117.57,117.57,0,0,0-29.2,31.86,115.23,115.23,0,0,0-6.78,12.81c-1,2.18-1.88,4.44-2.78,6.69-.47,1.11-.8,2.28-1.21,3.42s-.81,2.27-1.12,3.44c-.66,2.33-1.38,4.64-1.87,7-.27,1.18-.57,2.35-.8,3.54l-.65,3.57c-.23,1.18-.39,2.38-.54,3.58l-.46,3.6L491,294c-.1,1.21-.21,2.41-.21,3.62-.19,4.82-.11,9.72-.14,14.59l0,14.62-.12,29.23-.71-.7,57.11.3Z"/><path class="cls-4" d="M586.68,316.83q0,14.6-10.55,22.9T547,348q-18.57,0-30.39-5.76V325.36a82.5,82.5,0,0,0,15.9,5.54,67.33,67.33,0,0,0,15.68,2q10.63,0,15.69-4A13.2,13.2,0,0,0,568.94,318a13.61,13.61,0,0,0-4.64-10.41q-4.65-4.28-19.17-10.11-15-6.06-21.1-13.84A29.27,29.27,0,0,1,517.89,265q0-13.69,9.73-21.56t26.12-7.86A76.78,76.78,0,0,1,585,242.42L579.34,257q-14.6-6.13-26.05-6.14c-5.78,0-10.18,1.26-13.17,3.78a12.42,12.42,0,0,0-4.49,10,14,14,0,0,0,1.8,7.3,18.25,18.25,0,0,0,5.91,5.73q4.11,2.69,14.82,7.11,12,5,17.67,9.36a27.54,27.54,0,0,1,8.23,9.8A29.49,29.49,0,0,1,586.68,316.83Z"/><path class="cls-5" d="M475.49,356.06h0A114.54,114.54,0,0,1,361,241.52v-54H475.49Z"/><path class="cls-6" d="M475.49,356.06a118.1,118.1,0,0,1-29-3.48l-3.53-1-1.76-.49-1.74-.58L436,349.39l-3.42-1.31-1.71-.66-1.68-.74-3.35-1.49-3.28-1.64c-1.1-.54-2.19-1.09-3.24-1.71l-3.2-1.81c-1.05-.62-2.07-1.29-3.11-1.94-2.1-1.26-4.05-2.75-6.06-4.14a115,115,0,0,1-36.65-45.18c-1.06-2.21-1.93-4.51-2.84-6.78-.48-1.13-.82-2.32-1.24-3.47s-.83-2.31-1.15-3.5c-.67-2.36-1.4-4.7-1.91-7.11-.26-1.19-.57-2.38-.81-3.59l-.65-3.62c-.24-1.21-.4-2.42-.55-3.64l-.47-3.65-.29-3.67c-.09-1.23-.2-2.45-.21-3.68-.19-4.92-.11-9.77-.14-14.65l0-14.62,0-29.24v-1h58.24l57.27.08h.88v.87l-.13,42.27L476,272Zm0,0L475,271.59l-.21-42-.13-42,.87.88-57.27.08H361l1-1,0,29.24,0,14.62c0,4.86-.08,9.76.09,14.58,0,1.21.11,2.42.2,3.62l.28,3.62.45,3.6c.14,1.2.3,2.4.53,3.58L364,264c.22,1.18.52,2.35.78,3.54.49,2.37,1.21,4.68,1.85,7,.31,1.17.75,2.3,1.11,3.45s.73,2.31,1.19,3.43c.88,2.25,1.71,4.53,2.75,6.72a113.66,113.66,0,0,0,48,52.93c1,.63,2.11,1.2,3.19,1.75l3.23,1.68,3.31,1.52,1.66.76,1.69.68,3.38,1.37,3.44,1.19,1.72.6,1.75.52,3.5,1A118.61,118.61,0,0,0,475.49,356.06Z"/><path class="cls-4" d="M450.92,307.57H415.31A26.3,26.3,0,0,1,389,281.27V198.13h61.9v15.12h-44V243h41.24v15H406.91v34.36h44Z"/><path class="cls-7" d="M341.07,256.2a114.61,114.61,0,0,0-105-68.65h0V356.06H350.65v-54A114,114,0,0,0,341.07,256.2Z"/><path class="cls-8" d="M341.07,256.2a113.79,113.79,0,0,0-7.76-14.64,127.89,127.89,0,0,0-9.81-13.35,115.88,115.88,0,0,0-24.79-21.82L297,205.24l-1.78-1-3.58-2.08c-1.19-.71-2.46-1.26-3.68-1.9s-2.46-1.26-3.72-1.83a115.71,115.71,0,0,0-48.12-10.32l.52-.52.24,42.13.15,42.13.09,42.13L237,356.06l-.91-.9,28.64.07,28.64.16,57.27.33-.34.34.14-25.29.08-25.3a119.79,119.79,0,0,0-2-25.15A114.52,114.52,0,0,0,341.07,256.2Zm0,0a114.87,114.87,0,0,1,7.55,24.1,119.35,119.35,0,0,1,2.14,25.17l.08,25.3.15,25.29v.34h-.34l-57.27.33-28.64.17L236.1,357h-.9v-.91l-.1-42.12.1-42.13.14-42.13.25-42.13.51-.51a116.84,116.84,0,0,1,32.81,5A118.29,118.29,0,0,1,284.42,198c1.26.58,2.47,1.26,3.71,1.88s2.48,1.22,3.67,2l3.56,2.12,1.79,1.06,1.72,1.16a115.87,115.87,0,0,1,24.74,22,126.75,126.75,0,0,1,9.76,13.41A114.56,114.56,0,0,1,341.07,256.2Z"/><path class="cls-4" d="M290.6,288.53,264.7,238.6H245.24l36.31,67.6V348h18V305.6l26.88-49.4a115.22,115.22,0,0,0-9.62-17.6h-.27Z"/></g></svg>