<svg xmlns="http://www.w3.org/2000/svg" viewBox="0 0 841.89 595.28"><defs><style>.cls-1{fill:#876bfa;}.cls-1,.cls-2,.cls-3,.cls-4,.cls-5,.cls-6,.cls-7,.cls-8{fill-rule:evenodd;}.cls-2{fill:#ff476e;}.cls-3{fill:#941c61;}.cls-4{fill:#facc00;}.cls-5{fill:#f53814;}.cls-10,.cls-6{fill:#0accad;}.cls-7{fill:#0d9e05;}.cls-8{fill:#053b4f;}.cls-9{font-size:25.53px;fill:#565557;font-family:OpenSans-Light, Open Sans;font-weight:300;}</style></defs><g id="Layer_3" data-name="Layer 3"><path class="cls-1" d="M344.48,194c-1.89-1.81-1.48-6.08,2.65-4.06,2.49,1.21,12,8.74,20.14,15.37,2.18,1.79,6.51,4.81,4,8s-6-.59-8.51-2.59A228.9,228.9,0,0,1,344.48,194Zm10.91,60.59c-1.48-.28-.3-1,.09-1.12,4-1.66,7.31-4.85,8.22-9.15,1.69-7.94-7.28-14.24-12.5-19.51-7.32-7.38-15.87-15.7-18.19-17.15-3.9-2.44-4.75,1.77-3.06,3.76a228.55,228.55,0,0,0,16.4,18.48c8.5,8.4,11.64,14.38,2,19.31s-7.23,10.63,2.14,12.38c47.62,8.91,59.49-35.64,35-56.49C378.89,199.4,368.66,192,365,189.27s-7.39.32-3.79,3.75,8.78,6,17.53,15.59c18.62,20.41,3.2,48.31-23.35,46Zm-22.45-55.16c-1.84-1.85-1.32-6.11,2.76-4,5,2.61,20.2,15.31,25.71,21.17,5.13,5.44-.11,8.87-4.62,5.39-2.28-1.76-3.77-3.56-6-5.45a230.33,230.33,0,0,1-17.83-17.12Z"/><path class="cls-2" d="M336.61,300.91c-1.81,1.89-6.08,1.48-4.06-2.65,1.22-2.49,8.74-12,15.38-20.14,1.78-2.18,4.81-6.51,7.94-4s-.59,6-2.59,8.51a226.78,226.78,0,0,1-16.67,18.24ZM397.2,290c-.28,1.49-.95.31-1.12-.08-1.66-4-4.85-7.31-9.15-8.22-7.93-1.69-14.24,7.28-19.5,12.5-7.39,7.32-15.7,15.87-17.16,18.19-2.44,3.9,1.77,4.75,3.76,3.06A226.74,226.74,0,0,0,372.52,299c8.4-8.49,14.37-11.63,19.3-2s10.63,7.23,12.38-2.14c8.91-47.62-35.63-59.49-56.49-35-5.68,6.66-13.07,16.89-15.81,20.55s.33,7.39,3.75,3.79,6-8.79,15.59-17.54c20.41-18.62,48.31-3.2,46,23.35Zm-55.15,22.45c-1.86,1.85-6.12,1.33-4-2.75,2.62-5,15.31-20.2,21.17-25.72,5.44-5.12,8.88.12,5.39,4.63-1.76,2.28-3.55,3.77-5.45,6a227,227,0,0,1-17.11,17.83Z"/><path class="cls-3" d="M355.39,254.57c-1.48-.28-.3-1,.09-1.12a15.61,15.61,0,0,0,4.68-3,35.4,35.4,0,0,0-12.45,9.39l-.67.79a20.8,20.8,0,0,0,3.48.94c2.19.41,4.3.7,6.33.9a26.42,26.42,0,0,1,22-2.75,31.22,31.22,0,0,0,11.29-7.79A30.63,30.63,0,0,0,378,247.72c-5.58,4.86-13.42,7.66-22.6,6.85Z"/><path class="cls-4" d="M443.54,308.78c1.89,1.8,1.48,6.08-2.65,4.06-2.49-1.22-12-8.75-20.13-15.38-2.19-1.79-6.52-4.81-4-7.94s6,.59,8.51,2.58a228,228,0,0,1,18.24,16.68Zm-10.91-60.59c1.48.28.3.95-.09,1.11-4,1.67-7.31,4.85-8.22,9.16-1.69,7.93,7.28,14.23,12.5,19.5,7.32,7.38,15.87,15.7,18.19,17.16,3.9,2.44,4.75-1.77,3.07-3.76a229,229,0,0,0-16.41-18.49c-8.5-8.4-11.64-14.38-2-19.31s7.23-10.62-2.14-12.38c-47.62-8.9-59.49,35.64-35,56.49,6.66,5.68,16.89,13.08,20.55,15.82s7.39-.33,3.79-3.75-8.78-6-17.53-15.6c-18.62-20.41-3.2-48.3,23.35-45.95Zm22.45,55.15c1.84,1.85,1.32,6.12-2.76,4-5-2.61-20.2-15.31-25.71-21.17-5.12-5.44.11-8.87,4.62-5.38,2.28,1.75,3.77,3.55,6,5.44a230.33,230.33,0,0,1,17.83,17.12Z"/><path class="cls-5" d="M397.2,290c-.28,1.49-.95.31-1.12-.08a15.42,15.42,0,0,0-3-4.68,35.46,35.46,0,0,0,9.39,12.44l.79.67a20.41,20.41,0,0,0,.94-3.47q.62-3.28.9-6.34a26.45,26.45,0,0,1-2.75-22,31.36,31.36,0,0,0-7.78-11.28,30.49,30.49,0,0,0-4.22,12.12C395.21,273,398,280.82,397.2,290Z"/><path class="cls-6" d="M451.41,201.84c1.81-1.89,6.08-1.47,4.06,2.66-1.22,2.48-8.74,12-15.38,20.13-1.78,2.19-4.81,6.52-7.94,4s.59-6,2.59-8.51a227.88,227.88,0,0,1,16.67-18.25Zm-60.59,10.92c.28-1.49.95-.3,1.12.09,1.66,4,4.85,7.31,9.15,8.22,7.93,1.68,14.24-7.29,19.5-12.51,7.39-7.31,15.71-15.86,17.16-18.18,2.44-3.9-1.77-4.76-3.76-3.07a229,229,0,0,0-18.49,16.41c-8.39,8.49-14.37,11.64-19.3,2s-10.63-7.24-12.38,2.13c-8.91,47.63,35.64,59.5,56.49,35,5.67-6.66,13.07-16.89,15.81-20.55s-.33-7.39-3.75-3.8-6,8.79-15.59,17.54c-20.41,18.62-48.31,3.2-46-23.35ZM446,190.31c1.86-1.84,6.12-1.33,4,2.76-2.62,5-15.31,20.2-21.17,25.71-5.44,5.12-8.87-.11-5.39-4.63,1.76-2.27,3.56-3.76,5.45-6A229.1,229.1,0,0,1,446,190.31Z"/><path class="cls-7" d="M432.63,248.19c1.48.28.3.95-.09,1.11a15.64,15.64,0,0,0-4.68,3,35.4,35.4,0,0,0,12.45-9.39l.67-.8a21.8,21.8,0,0,0-3.48-.94c-2.18-.41-4.3-.7-6.33-.89a26.42,26.42,0,0,1-22,2.74,31.34,31.34,0,0,0-11.29,7.79A30.47,30.47,0,0,0,410,255c5.57-4.85,13.42-7.65,22.6-6.84Z"/><path class="cls-8" d="M393.45,247.47a30.43,30.43,0,0,0,4.22-12.12c-4.86-5.57-7.66-13.41-6.85-22.59.28-1.49.95-.3,1.12.09a15.42,15.42,0,0,0,3,4.68,35.4,35.4,0,0,0-9.39-12.45l-.79-.67a20.93,20.93,0,0,0-.94,3.47q-.61,3.28-.9,6.34a26.46,26.46,0,0,1,2.75,22,31.19,31.19,0,0,0,7.78,11.28Z"/><text class="cls-9" transform="translate(228.6 399.09)">Youth Empowerment Society</text><path class="cls-10" d="M367.75,348.66l8.34-16.07h6.27l-11.74,21.57v13.66h-5.78V354.35l-11.69-21.76h6.26Z"/><path class="cls-10" d="M406.94,367.82H387V332.59h19.93v4.87H392.77v9.59h13.28v4.82H392.77v11.06h14.17Z"/><path class="cls-10" d="M434.87,358.26a8.87,8.87,0,0,1-3.39,7.37q-3.41,2.67-9.38,2.68a22.29,22.29,0,0,1-9.78-1.86V361a26.47,26.47,0,0,0,5.12,1.79,21.86,21.86,0,0,0,5.05.65,8.1,8.1,0,0,0,5.05-1.3,4.27,4.27,0,0,0,1.62-3.5,4.4,4.4,0,0,0-1.49-3.35A22.76,22.76,0,0,0,421.5,352c-3.22-1.3-5.48-2.79-6.8-4.46a9.43,9.43,0,0,1-2-6,8.44,8.44,0,0,1,3.14-6.94,13,13,0,0,1,8.41-2.53,24.68,24.68,0,0,1,10.07,2.22l-1.83,4.7a22,22,0,0,0-8.39-2,6.46,6.46,0,0,0-4.24,1.22,4,4,0,0,0-1.44,3.22,4.5,4.5,0,0,0,.58,2.35,5.89,5.89,0,0,0,1.9,1.84,31.88,31.88,0,0,0,4.77,2.29,26.43,26.43,0,0,1,5.69,3,9,9,0,0,1,2.65,3.16A9.55,9.55,0,0,1,434.87,358.26Z"/></g></svg>